<svg width="53" height="67" viewBox="0 0 53 67" fill="none" xmlns="http://www.w3.org/2000/svg">
<path d="M19.5639 25.8667V21.9556C19.5676 21.0113 19.9419 20.1069 20.6047 19.4406C21.2676 18.7742 22.165 18.4 23.1006 18.4H30.7376C31.6731 18.4 32.5706 18.7742 33.2334 19.4406C33.8963 20.1069 34.2705 21.0113 34.2742 21.9556V25.8951H37.7687V21.9556C37.7687 20.0696 37.0264 18.2609 35.7052 16.9273C34.3839 15.5937 32.592 14.8445 30.7235 14.8445H23.1006C21.2321 14.8445 19.4401 15.5937 18.1189 16.9273C16.7977 18.2609 16.0554 20.0696 16.0554 21.9556V25.8951L19.5639 25.8667Z" fill="#A7A19B"/>
<path d="M39.3505 53.5712C46.8412 46.6382 47.3454 34.8887 40.4766 27.328C33.6079 19.7672 21.9673 19.2583 14.4766 26.1913C6.98595 33.1243 6.4818 44.8738 13.3505 52.4346C20.2193 59.9953 31.8599 60.5042 39.3505 53.5712Z" fill="#A8A29B"/>
<path d="M38.7228 52.9081C45.8349 46.3255 46.3136 35.1697 39.792 27.9911C33.2703 20.8124 22.218 20.3293 15.1059 26.9119C7.99377 33.4945 7.5151 44.6503 14.0367 51.8289C20.5583 59.0076 31.6107 59.4907 38.7228 52.9081Z" fill="#C6C6C6"/>
<path d="M36.9819 50.9458C43.0425 45.3325 43.4472 35.823 37.886 29.7058C32.3247 23.5885 22.9033 23.18 16.8427 28.7933C10.7822 34.4066 10.3774 43.9161 15.9387 50.0333C21.5 56.1506 30.9213 56.5591 36.9819 50.9458Z" fill="#A8A29B"/>
<path d="M23.0793 46.1875V43.9375C23.0793 43.2175 23.1813 42.6055 23.3853 42.1015C23.5893 41.5975 23.8503 41.1715 24.1683 40.8235C24.4923 40.4695 24.8343 40.1605 25.1943 39.8965C25.5543 39.6325 25.8933 39.3865 26.2113 39.1585C26.5353 38.9305 26.7993 38.6905 27.0033 38.4385C27.2073 38.1805 27.3093 37.8775 27.3093 37.5295V35.7295C27.3093 35.4595 27.2313 35.2435 27.0753 35.0815C26.9193 34.9135 26.6973 34.8295 26.4093 34.8295C26.1213 34.8295 25.8993 34.9135 25.7433 35.0815C25.5873 35.2435 25.5093 35.4595 25.5093 35.7295V36.4495H23.0793V35.7295C23.0793 34.7275 23.3793 33.9235 23.9793 33.3175C24.5853 32.7055 25.3953 32.3995 26.4093 32.3995C27.4293 32.3995 28.2393 32.7055 28.8393 33.3175C29.4393 33.9235 29.7393 34.7275 29.7393 35.7295V37.5295C29.7393 38.0875 29.6403 38.5675 29.4423 38.9695C29.2443 39.3655 28.9893 39.7135 28.6773 40.0135C28.3713 40.3135 28.0443 40.5865 27.6963 40.8325C27.3483 41.0785 27.0183 41.3275 26.7063 41.5795C26.4003 41.8315 26.1483 42.1105 25.9503 42.4165C25.7523 42.7165 25.6533 43.0735 25.6533 43.4875V44.8555L24.5553 43.7575H29.7393V46.1875H23.0793Z" fill="white"/>
<path d="M23.0793 46.1875V43.9375C23.0793 43.2175 23.1813 42.6055 23.3853 42.1015C23.5893 41.5975 23.8503 41.1715 24.1683 40.8235C24.4923 40.4695 24.8343 40.1605 25.1943 39.8965C25.5543 39.6325 25.8933 39.3865 26.2113 39.1585C26.5353 38.9305 26.7993 38.6905 27.0033 38.4385C27.2073 38.1805 27.3093 37.8775 27.3093 37.5295V35.7295C27.3093 35.4595 27.2313 35.2435 27.0753 35.0815C26.9193 34.9135 26.6973 34.8295 26.4093 34.8295C26.1213 34.8295 25.8993 34.9135 25.7433 35.0815C25.5873 35.2435 25.5093 35.4595 25.5093 35.7295V36.4495H23.0793V35.7295C23.0793 34.7275 23.3793 33.9235 23.9793 33.3175C24.5853 32.7055 25.3953 32.3995 26.4093 32.3995C27.4293 32.3995 28.2393 32.7055 28.8393 33.3175C29.4393 33.9235 29.7393 34.7275 29.7393 35.7295V37.5295C29.7393 38.0875 29.6403 38.5675 29.4423 38.9695C29.2443 39.3655 28.9893 39.7135 28.6773 40.0135C28.3713 40.3135 28.0443 40.5865 27.6963 40.8325C27.3483 41.0785 27.0183 41.3275 26.7063 41.5795C26.4003 41.8315 26.1483 42.1105 25.9503 42.4165C25.7523 42.7165 25.6533 43.0735 25.6533 43.4875V44.8555L24.5553 43.7575H29.7393V46.1875H23.0793Z" fill="white"/>
<g style="mix-blend-mode:overlay" opacity="0.45">
<path d="M13.011 40.8712C13.0079 37.9576 13.8446 35.1059 15.419 32.6638C16.9934 30.2217 19.2376 28.2945 21.8781 27.1172C24.5186 25.9399 27.4413 25.5632 30.2902 26.0331C33.139 26.503 35.791 27.7992 37.9228 29.7637C36.5657 28.2694 34.9228 27.0678 33.0933 26.2314C31.2638 25.395 29.2855 24.9411 27.2776 24.8971C25.2697 24.8531 23.2737 25.2198 21.4099 25.9752C19.5462 26.7306 17.8532 27.859 16.433 29.2924C15.0129 30.7258 13.8949 32.4347 13.1465 34.3159C12.3981 36.1971 12.0348 38.2117 12.0785 40.2384C12.1221 42.2652 12.5718 44.262 13.4004 46.1086C14.229 47.9552 15.4195 49.6134 16.9 50.9832C14.3926 48.2245 13.0044 44.615 13.011 40.8712V40.8712Z" fill="#A8A29B"/>
</g>
<g style="mix-blend-mode:multiply" opacity="0.67">
<path d="M36.3598 28.2422C38.7596 31.1327 40.1858 34.7191 40.4319 38.4821C40.4319 42.4691 38.8627 46.2928 36.0697 49.112C33.2766 51.9312 29.4884 53.515 25.5384 53.515C21.8075 53.2785 18.2508 51.8375 15.3933 49.4048C16.7143 51.0209 18.3553 52.3404 20.2112 53.2788C22.0671 54.2172 24.0968 54.7536 26.1701 54.8537C28.2434 54.9538 30.3146 54.6153 32.2507 53.86C34.1869 53.1047 35.9452 51.9493 37.413 50.4678C38.8807 48.9864 40.0254 47.2116 40.7737 45.2573C41.522 43.3031 41.8573 41.2125 41.7582 39.1198C41.659 37.0271 41.1275 34.9784 40.1979 33.1051C39.2682 31.2319 37.9609 29.5755 36.3598 28.2422V28.2422Z" fill="#A8A29B"/>
</g>
<path d="M28.8911 0.15332L22.2545 18.315C22.1655 18.5389 22.1343 18.782 22.164 19.0214C22.1936 19.2608 22.2831 19.4886 22.424 19.6835C22.5649 19.8783 22.7526 20.0338 22.9695 20.1353C23.1863 20.2367 23.4252 20.2808 23.6636 20.2635H25.0726L32.4278 0.15332H28.8911Z" fill="#1268C6"/>
<path d="M32.3434 0.15332L24.9883 20.2635H28.4263L35.7956 0.15332H32.3434Z" fill="white"/>
<path d="M35.7809 0.153206L30.1448 15.5132L28.4258 20.2349H30.8775C31.2085 20.2316 31.5277 20.1107 31.7793 19.8936C31.9824 19.7386 32.1346 19.5255 32.2161 19.282L39.2613 0.124756L35.7809 0.153206Z" fill="#EB3723"/>
<path style="mix-blend-mode:multiply" opacity="0.69" d="M34.0481 14.347L32.2164 19.3105C32.1382 19.5557 31.9854 19.7697 31.7796 19.9221C31.5321 20.146 31.2102 20.2679 30.8778 20.2634H23.5931C23.3529 20.2819 23.1121 20.238 22.8936 20.1359C22.675 20.0337 22.4861 19.8767 22.3447 19.6799C22.2034 19.483 22.1144 19.2529 22.0863 19.0114C22.0582 18.77 22.0918 18.5253 22.184 18.3007L28.7924 0.224365L34.0481 14.347Z" fill="url(#paint0_linear_95_1660)"/>
<path d="M24.5384 0.15332H21.1003L28.4414 20.235H30.8649C31.1959 20.2317 31.5152 20.1109 31.7667 19.8937L30.1463 15.4848L24.5384 0.15332Z" fill="#1268C6"/>
<path d="M17.6611 0.15332L25.0163 20.2635H28.4543L21.0992 0.15332H17.6611Z" fill="white"/>
<path d="M14.2095 0.15332L21.2547 19.3106C21.3516 19.5904 21.5327 19.8327 21.7727 20.0035C22.0127 20.1744 22.2996 20.2653 22.5932 20.2635H25.0449L17.6898 0.15332H14.2095Z" fill="#EB3723"/>
<defs>
<linearGradient id="paint0_linear_95_1660" x1="31.0892" y1="9.72477" x2="27.6248" y2="11.3919" gradientUnits="userSpaceOnUse">
<stop stop-color="white"/>
<stop offset="1" stop-color="#121E3D"/>
</linearGradient>
</defs>
</svg>
