<svg width="53" height="67" viewBox="0 0 53 67" fill="none" xmlns="http://www.w3.org/2000/svg">
<path d="M18.8022 26.3667V22.4556C18.8059 21.5113 19.1802 20.6069 19.843 19.9406C20.5059 19.2742 21.4033 18.9 22.3389 18.9H29.9758C30.9114 18.9 31.8088 19.2742 32.4717 19.9406C33.1345 20.6069 33.5088 21.5113 33.5125 22.4556V26.3951H37.0069V22.4556C37.0069 20.5696 36.2647 18.7609 34.9434 17.4273C33.6222 16.0937 31.8303 15.3445 29.9618 15.3445H22.3389C20.4704 15.3445 18.6784 16.0937 17.3572 17.4273C16.036 18.7609 15.2937 20.5696 15.2937 22.4556V26.3951L18.8022 26.3667Z" fill="#A74317"/>
<path d="M38.5888 54.0712C46.0795 47.1382 46.5836 35.3887 39.7149 27.828C32.8462 20.2672 21.2056 19.7583 13.7149 26.6913C6.22423 33.6243 5.72008 45.3738 12.5888 52.9346C19.4576 60.4953 31.0981 61.0042 38.5888 54.0712Z" fill="#E1803D"/>
<path d="M37.961 53.4081C45.0732 46.8255 45.5519 35.6697 39.0302 28.4911C32.5086 21.3124 21.4563 20.8293 14.3442 27.4119C7.23205 33.9945 6.75338 45.1503 13.275 52.3289C19.7966 59.5076 30.8489 59.9907 37.961 53.4081Z" fill="#A74317"/>
<path d="M36.2202 51.4458C42.2807 45.8325 42.6855 36.323 37.1242 30.2058C31.563 24.0885 22.1416 23.68 16.081 29.2933C10.0205 34.9066 9.61573 44.4161 15.177 50.5333C20.7383 56.6506 30.1596 57.0591 36.2202 51.4458Z" fill="#E1803D"/>
<path d="M25.2833 47.4755C24.2693 47.4755 23.4593 47.1695 22.8533 46.5575C22.2533 45.9455 21.9533 45.1415 21.9533 44.1455V43.4255H24.3833V44.1455C24.3833 44.4155 24.4613 44.6345 24.6173 44.8025C24.7733 44.9645 24.9953 45.0455 25.2833 45.0455C25.5713 45.0455 25.7933 44.9645 25.9493 44.8025C26.1053 44.6345 26.1833 44.4155 26.1833 44.1455V42.3455C26.1833 42.0755 26.1053 41.8595 25.9493 41.6975C25.7933 41.5295 25.5713 41.4455 25.2833 41.4455H23.8793V39.0155H25.2833C25.5713 39.0155 25.7933 38.9345 25.9493 38.7725C26.1053 38.6045 26.1833 38.3855 26.1833 38.1155V36.7295C26.1833 36.4595 26.1053 36.2435 25.9493 36.0815C25.7933 35.9135 25.5713 35.8295 25.2833 35.8295C24.9953 35.8295 24.7733 35.9135 24.6173 36.0815C24.4613 36.2435 24.3833 36.4595 24.3833 36.7295V37.4495H21.9533V36.7295C21.9533 35.7275 22.2533 34.9235 22.8533 34.3175C23.4593 33.7055 24.2693 33.3995 25.2833 33.3995C26.3033 33.3995 27.1133 33.7055 27.7133 34.3175C28.3133 34.9235 28.6133 35.7275 28.6133 36.7295V38.1155C28.6133 38.6735 28.5143 39.1715 28.3163 39.6095C28.1243 40.0475 27.8573 40.4075 27.5153 40.6895V39.7355C27.8573 40.0295 28.1243 40.3985 28.3163 40.8425C28.5143 41.2865 28.6133 41.7875 28.6133 42.3455V44.1455C28.6133 45.1415 28.3133 45.9455 27.7133 46.5575C27.1133 47.1695 26.3033 47.4755 25.2833 47.4755Z" fill="white"/>
<g style="mix-blend-mode:overlay" opacity="0.45">
<path d="M12.2493 41.3712C12.2462 38.4576 13.0828 35.6059 14.6572 33.1638C16.2317 30.7217 18.4759 28.7945 21.1164 27.6172C23.7568 26.4399 26.6796 26.0632 29.5285 26.5331C32.3773 27.003 35.0293 28.2992 37.1611 30.2637C35.8039 28.7694 34.1611 27.5678 32.3316 26.7314C30.5021 25.895 28.5238 25.4411 26.5159 25.3971C24.508 25.3531 22.512 25.7198 20.6482 26.4752C18.7844 27.2306 17.0915 28.359 15.6713 29.7924C14.2511 31.2258 13.1332 32.9347 12.3848 34.8159C11.6364 36.6971 11.2731 38.7117 11.3167 40.7384C11.3604 42.7652 11.81 44.762 12.6387 46.6086C13.4673 48.4552 14.6577 50.1134 16.1382 51.4832C13.6309 48.7245 12.2427 45.115 12.2493 41.3712V41.3712Z" fill="white"/>
</g>
<g style="mix-blend-mode:multiply" opacity="0.67">
<path d="M35.598 28.7422C37.9979 31.6327 39.4241 35.2191 39.6702 38.9821C39.6702 42.9691 38.101 46.7928 35.3079 49.612C32.5149 52.4312 28.7266 54.015 24.7766 54.015C21.0458 53.7785 17.4891 52.3375 14.6316 49.9048C15.9526 51.5209 17.5936 52.8404 19.4495 53.7788C21.3054 54.7172 23.3351 55.2536 25.4084 55.3537C27.4817 55.4538 29.5529 55.1153 31.489 54.36C33.4252 53.6047 35.1835 52.4493 36.6512 50.9678C38.119 49.4864 39.2637 47.7116 40.012 45.7573C40.7603 43.8031 41.0956 41.7125 40.9964 39.6198C40.8973 37.5271 40.3658 35.4784 39.4362 33.6051C38.5065 31.7319 37.1992 30.0755 35.598 28.7422V28.7422Z" fill="#A63A1B"/>
</g>
<path d="M28.1294 0.65332L21.4928 18.815C21.4038 19.0389 21.3726 19.282 21.4022 19.5214C21.4319 19.7608 21.5214 19.9886 21.6623 20.1835C21.8032 20.3783 21.9909 20.5338 22.2078 20.6353C22.4246 20.7367 22.6635 20.7808 22.9019 20.7635H24.3109L31.6661 0.65332H28.1294Z" fill="#1268C6"/>
<path d="M31.5817 0.65332L24.2266 20.7635H27.6646L35.0339 0.65332H31.5817Z" fill="white"/>
<path d="M35.0192 0.653206L29.3831 16.0132L27.6641 20.7349H30.1158C30.4468 20.7316 30.766 20.6107 31.0176 20.3936C31.2207 20.2386 31.3729 20.0255 31.4544 19.782L38.4995 0.624756L35.0192 0.653206Z" fill="#EB3723"/>
<path style="mix-blend-mode:multiply" opacity="0.69" d="M33.2864 14.847L31.4547 19.8105C31.3765 20.0557 31.2236 20.2697 31.0179 20.4221C30.7704 20.646 30.4485 20.7679 30.1161 20.7634H22.8314C22.5912 20.7819 22.3504 20.738 22.1318 20.6359C21.9133 20.5337 21.7243 20.3767 21.583 20.1799C21.4417 19.983 21.3527 19.7529 21.3246 19.5114C21.2965 19.27 21.3301 19.0253 21.4223 18.8007L28.0307 0.724365L33.2864 14.847Z" fill="url(#paint0_linear_95_1699)"/>
<path d="M23.7767 0.65332H20.3386L27.6797 20.735H30.1032C30.4342 20.7317 30.7535 20.6109 31.005 20.3937L29.3846 15.9848L23.7767 0.65332Z" fill="#1268C6"/>
<path d="M16.8994 0.65332L24.2546 20.7635H27.6926L20.3375 0.65332H16.8994Z" fill="white"/>
<path d="M13.4478 0.65332L20.4929 19.8106C20.5898 20.0904 20.7709 20.3327 21.0109 20.5035C21.2509 20.6744 21.5378 20.7653 21.8315 20.7635H24.2832L16.9281 0.65332H13.4478Z" fill="#EB3723"/>
<defs>
<linearGradient id="paint0_linear_95_1699" x1="30.3274" y1="10.2248" x2="26.8631" y2="11.8919" gradientUnits="userSpaceOnUse">
<stop stop-color="white"/>
<stop offset="1" stop-color="#121E3D"/>
</linearGradient>
</defs>
</svg>
